<svg width="188" height="26" xmlns="http://www.w3.org/2000/svg">

 <g>
  <title>background</title>
  <rect fill="none" id="canvas_background" height="402" width="582" y="-1" x="-1"/>
 </g>
 <g>
  <title>Layer 1</title>
  <text stroke="null" transform="matrix(1.2871849536895752,0,0,1.2871849536895752,-3.0751162828919405,-8.653814704284287) " font-weight="bold" xml:space="preserve" text-anchor="start" font-family="Georgia, Times, 'Times New Roman', serif" font-size="24" id="svg_22" y="25.964596" x="22.266319" fill-opacity="null" stroke-opacity="null" stroke-width="0" fill="#000000">S</text>
  <text stroke="null" transform="matrix(1.2411721719383566,0,0,1.2411721719383566,-8.635913129480075,-2.7951452434870627) " font-weight="bold" xml:space="preserve" text-anchor="start" font-family="Georgia, Times, 'Times New Roman', serif" font-size="24" id="svg_24" y="22.144262" x="45.739661" fill-opacity="null" stroke-opacity="null" stroke-width="0" fill="#000000">a</text>
  <text stroke="null" transform="matrix(1.1481808746615183,0,0,1.1481808746615183,-10.730071457223458,-5.248758659216681) " font-weight="bold" xml:space="preserve" text-anchor="start" font-family="Georgia, Times, 'Times New Roman', serif" font-size="24" id="svg_25" y="26.124672" x="69.58158" fill-opacity="null" stroke-opacity="null" stroke-width="0" fill="#000000">m</text>
  <text stroke="null" transform="matrix(1.1605311632156372,0,0,1.1605311632156372,-17.458730331852166,-5.1980439399667375) " font-weight="bold" xml:space="preserve" text-anchor="start" font-family="Georgia, Times, 'Times New Roman', serif" font-size="24" id="svg_26" y="26.495707" x="104.13242" stroke-opacity="null" stroke-width="0" fill="#3f7f00">W</text>
  <text stroke="null" transform="matrix(1.1959863220075186,0,0,1.1959863220075186,-23.226857702338318,6.675934022609251) " font-weight="bold" xml:space="preserve" text-anchor="start" font-family="Georgia, Times, 'Times New Roman', serif" font-size="24" id="svg_27" y="15.399398" x="132.532516" stroke-opacity="null" stroke-width="0" fill="#3f7f00">A</text>
  <text stroke="null" transform="matrix(1.1846589530291358,0,0,1.1846589530291358,-35.29946937381119,-6.692523365802941) " font-weight="bold" xml:space="preserve" text-anchor="start" font-family="Georgia, Times, 'Times New Roman', serif" font-size="24" id="svg_28" y="27.098539" x="165.439258" stroke-opacity="null" stroke-width="0" fill="#3f7f00">F</text>
  <path id="svg_33" d="m10.667462,0.68552c2.499489,0 4.527217,1.885843 4.527217,4.2082c0,2.322358 -2.027728,4.206386 -4.527217,4.206386c-2.49949,0 -4.527218,1.885845 -4.527218,4.208201c0,2.322357 2.027728,4.206386 4.527218,4.206386c4.998977,0 9.056386,-3.769874 9.056386,-8.414587c0,-4.644714 -4.057408,-8.414586 -9.056386,-8.414586l0,0.000001zm0,2.893137c-0.781492,0 -1.415367,0.588951 -1.415367,1.315062c0,0.726112 0.633872,1.315062 1.415367,1.315062c0.781493,0 1.415365,-0.588951 1.415365,-1.315062c0,-0.726111 -0.633871,-1.315062 -1.415365,-1.315062zm0,8.414587c0.781089,0 1.415365,0.589325 1.415365,1.315062c0,0.725735 -0.634275,1.315063 -1.415365,1.315063c-0.78109,0 -1.415367,-0.589328 -1.415367,-1.315063c0,-0.725735 0.634276,-1.315062 1.415367,-1.315062zm8.853257,-2.887777c0,4.641263 -4.04946,8.40375 -9.044726,8.40375c-4.995264,0 -9.044726,-3.762487 -9.044726,-8.40375c0,-4.641265 4.049462,-8.403753 9.044726,-8.403753c4.995267,0 9.044726,3.762488 9.044726,8.403753z" fill-opacity="null" stroke-opacity="null" stroke-width="null" stroke="null" fill="#007f00"/>
 </g>
</svg>