<svg width="32" height="32" xmlns="http://www.w3.org/2000/svg">
 <defs>
  <clipPath id="clip0_2557_23660">
   <rect id="svg_1" x="2.97754" y="2" fill="white" height="25.72" width="25.1407"/>
  </clipPath>
 </defs>
 <g>
  <title>background</title>
  <rect fill="none" id="canvas_background" height="402" width="582" y="-1" x="-1"/>
 </g>
 <g>
  <title>Layer 1</title>
  <path id="svg_7" d="m15.746835,3.869737c3.260914,0 5.906354,2.647988 5.906354,5.908902c0,3.260916 -2.64544,5.906355 -5.906354,5.906355c-3.260916,0 -5.906356,2.64799 -5.906356,5.908903c0,3.260915 2.64544,5.906355 5.906356,5.906355c6.521828,0 11.815254,-5.293431 11.815254,-11.81526c0,-6.521829 -5.293427,-11.815257 -11.815254,-11.815257l0,0.000001zm0,4.06237c-1.01956,0 -1.846533,0.82697 -1.846533,1.846532c0,1.019563 0.826971,1.846532 1.846533,1.846532c1.019562,0 1.846531,-0.82697 1.846531,-1.846532c0,-1.019562 -0.826969,-1.846532 -1.846531,-1.846532zm0,11.81526c1.019034,0 1.846531,0.827495 1.846531,1.846532c0,1.019034 -0.827496,1.846533 -1.846531,1.846533c-1.019036,0 -1.846533,-0.827498 -1.846533,-1.846533c0,-1.019034 0.827498,-1.846532 1.846533,-1.846532zm11.550246,-4.054844c0,6.516983 -5.283056,11.800043 -11.800043,11.800043c-6.516984,0 -11.800043,-5.283059 -11.800043,-11.800043c0,-6.516986 5.28306,-11.800047 11.800043,-11.800047c6.516987,0 11.800043,5.283061 11.800043,11.800047z" fill-opacity="null" stroke-opacity="null" stroke-width="null" stroke="null" fill="#007f00"/>
 </g>
</svg>